<?xml version="1.0" encoding="utf-8"?>
<!-- Generator: Adobe Illustrator 22.1.0, SVG Export Plug-In . SVG Version: 6.00 Build 0)  -->
<svg version="1.1" xmlns="http://www.w3.org/2000/svg" xmlns:xlink="http://www.w3.org/1999/xlink" x="0px" y="0px"
	 viewBox="0 0 671 671" style="enable-background:new 0 0 671 671;" xml:space="preserve">
<style type="text/css">
	.st0{display:none;}
	.st1{display:inline;stroke:#1D1D1B;stroke-width:2;stroke-miterlimit:10;}
	.st2{fill:#ffffff;}
	.st3{fill:#70BBE4;}
</style>
<g id="Capa_1" class="st0">
	
		<image style="display:inline;overflow:visible;" width="800" height="800" xlink:href="WhatsApp Image 2021-01-18 at 16.15.16.jpeg"  transform="matrix(1 0 0 1 -48 -202)">
	</image>
</g>
<g id="Capa_3" class="st0">
	<rect x="739.3" class="st1" width="687.7" height="669.3"/>
</g>
<g id="logo">
	<g>
		<g>
			<path class="st2" d="M131.4,103c0,115.9,0,231.8,0,347.7c0,18-0.1,36.1-0.2,54.1c0,7.6-0.1,15.2,0.1,22.8
				c0.1,4.6-0.9,11.3,3.6,14.3c8.9,5.8,22.6-0.9,23.8-11c0.6-5.1,0.9-10.2,1.3-15.3c1-13.5,1.9-27,3.2-40.5c0.2-2.1,0.4-4.2,0.7-6.3
				c0.1-0.6,0.4-1.4,0.3-2.1c0-0.1,0.1-0.5,0.1-0.5c-0.7,2-1,2.6-0.6,1.8c-1.3,2-3.1,3.3-5.3,3.8c2.1,0.5,6.8-1.4,8.9-1.8
				c2.9-0.6,5.8-1.3,8.6-1.9c6.1-1.4,12.2-3,18.2-4.7c22.1-6.3,43.9-14.2,64.6-24.2c30.1-14.4,58-32.8,82.8-55.1
				c14.6-13.2,27.7-27.9,39.9-43.3c19.2-24.3,39.9-52.9,45.1-84.2c2.3-14,0.2-29.3-10.2-39.8c-14.9-15.1-38-18.7-58.1-20.5
				c-32.5-3-65.6-0.6-97.8,4c-36.6,5.3-72.8,13.7-107.7,26c-31.9,11.2-63.7,25.1-90.7,45.6c-20.6,15.7-40.5,36.7-44.7,63.3
				c-3.8,24.7,8,48.1,24.1,66c21.2,23.7,49,41.4,76.9,56.1c34.5,18.2,71.2,32.4,108.3,44.3c38.9,12.3,78.6,21.9,118.8,28.7
				c40.8,6.9,82.9,11.6,124.2,8c39.6-3.4,77-16.7,106.2-44.3c28-26.5,44.2-63.2,51-100.7c1.9-10.3,3-20.7,3.5-31.2
				c0.5-12.7-25.8-8.4-26.3,2.4c-2.2,51.3-21.2,105.7-65.5,135.4c-1.4,0.9-2.9,1.9-4.3,2.8c-0.8,0.5-1.6,1-2.4,1.5
				c0.4-0.3,2.1-1.1-0.1,0c-3.1,1.6-6.1,3.2-9.3,4.6c-1.6,0.7-3.2,1.4-4.9,2.1c-0.7,0.3-1.5,0.6-2.2,0.9c-0.4,0.1-2.7,1-1.1,0.4
				c1.9-0.7-1.8,0.6-1.7,0.6c-0.8,0.3-1.5,0.5-2.3,0.8c-2,0.6-4,1.2-6,1.8c-3.5,1-7.1,1.8-10.6,2.5c-0.9,0.2-1.7,0.3-2.6,0.5
				c-2.5,0.5,3.2-0.5-1.1,0.2c-2,0.3-4.1,0.6-6.1,0.9c-8.8,1.2-17.7,1.8-26.6,2.1c-32.4,1-65.6-2.9-97.8-8.2
				C296.9,503,232.7,485,173.5,459.5c-25.8-11.1-51.7-24.5-74.9-40.9c-18.2-12.8-35.3-27.4-46.9-47.5c-0.5-0.9-1.1-1.9-1.6-2.9
				c0.8,1.4-0.5-1.1-0.7-1.5c-1-2.2-2-4.5-2.8-6.9c-1.5-4.2-2.5-8.5-3.1-12.9c-0.1-1.1-0.3-2.2-0.3-3.3c-0.1-1.3,0,1.4,0,0.1
				c0-0.6,0-1.2,0-1.9c0-2.3,0.1-4.6,0.4-6.8c0.2-2.2,0.6-4.3,1.1-6.4c0.3-1.1,0.5-2.2,0.9-3.3c0.1-0.5,0.3-1,0.4-1.5
				c0.6-1.9-0.6,1.4,0.2-0.6c1.7-4.3,3.7-8.5,6.1-12.5c0.6-1.1,1.3-2.1,2-3.1c0.4-0.6,2.2-3.2,0.8-1.2c1.5-2.1,3.1-4.1,4.8-6
				c3.6-4.1,7.4-7.9,11.5-11.6c0.5-0.4,0.9-0.8,1.4-1.3c-1.8,1.6-0.5,0.4-0.1,0.1c1.1-0.9,2.2-1.9,3.4-2.8c2.5-2,5-3.8,7.5-5.7
				c4.9-3.5,10.1-6.8,15.3-10c0.6-0.4,4.7-2.7,2.2-1.3c1.3-0.7,2.5-1.4,3.8-2.1c2.9-1.6,5.9-3.2,8.9-4.7
				c12.6-6.4,25.6-11.9,38.8-16.8c0.9-0.3,4.9-1.8,2.3-0.9c1.7-0.6,3.5-1.2,5.2-1.8c3.5-1.2,7-2.4,10.6-3.5
				c7.1-2.3,14.3-4.4,21.6-6.4c14.4-3.9,28.9-7.3,43.5-10.1c1.6-0.3,3.3-0.6,4.9-0.9c2.7-0.5,0.7-0.1,0.1,0c1-0.2,2-0.4,3.1-0.5
				c3.9-0.7,7.7-1.3,11.6-1.9c7-1,14-2,21-2.7c13.5-1.5,27-2.5,40.6-2.7c1.4,0,2.9,0,4.3-0.1c3.5-0.1-1.7,0,0.4,0c0.7,0,1.4,0,2.1,0
				c3.3,0,6.6,0.1,9.9,0.2c5.7,0.2,11.4,0.6,17.1,1.1c14,1.4,31.3,3.6,41.6,13.8c7.6,7.6,9.5,17.6,8.3,27.9
				c-1.4,12.3-5.6,22.2-11.2,33.3c-11.4,22.4-24.8,40.1-40.8,58.8c-9.7,11.3-20.1,22-31.2,31.9c-0.4,0.4-0.9,0.8-1.3,1.2
				c2.1-1.8,0.5-0.4-0.1,0.1c-1.1,0.9-2.1,1.8-3.2,2.7c-2.2,1.8-4.5,3.7-6.8,5.4c-5,3.9-10,7.6-15.2,11.2
				c-12.6,8.7-22.1,14.3-34.8,20.8c-14.9,7.6-31.8,14.8-46.2,19.7c-9.1,3.1-18.2,5.8-27.5,8.3c-9.6,2.5-19.5,4-29,6.7
				c-7.2,2-14.3,6.9-15.7,14.5c-0.7,3.7-0.9,7.6-1.2,11.3c-1,11.4-1.8,22.9-2.7,34.3c-0.3,4.6-0.7,9.1-1.1,13.7
				c-0.1,1.5-0.3,2.9-0.4,4.4c-0.1,1.9-1.2,2.6,0.4-0.1c1.3-1.4,2.6-2.8,3.9-4.2c0,0,0,0,0,0c6.2-0.6,12.4-1.2,18.6-1.8
				c0.9,1.1,1.8,2.3,2.7,3.4c0-0.1-0.1-0.3-0.1-0.4c0-0.1-0.2-0.9-0.1-1c0,0-0.1-1.3-0.1-1.4c0.2,2.7,0,0.4,0-0.1
				c-0.1-3.8-0.2-7.5-0.2-11.3c-0.1-9.5,0-18.9,0.1-28.4c0.2-26.1,0.1-52.1,0.1-78.2c0-65.9,0-131.9,0-197.8c0-37.3,0-74.6,0-111.9
				c0-6.3-6.5-8.1-11.8-7.6C141.3,93.4,131.4,96.9,131.4,103L131.4,103z"/>
		</g>
	</g>
	<g>
		<ellipse class="st3" cx="617.4" cy="291.6" rx="31.7" ry="26.7"/>
		<g>
			<path class="st3" d="M643.3,293.2c-0.4,14-13,24-26.6,22.3c-12.8-1.6-25.3-11.6-25.2-25.4c0.1-14.1,13.2-24,26.6-22.3
				C631.3,269.4,642.9,279.4,643.3,293.2c0.1,2.4,11.7,0.5,11.6-3.1c-0.4-14.2-12.4-24.1-25.5-26.8c-14.1-2.9-30.6,1-41.1,11.1
				c-9.6,9.2-11.1,23.6-2.7,34.1c9.3,11.6,25.8,14.2,39.7,11.2c14.7-3.2,29.2-13.3,29.7-29.6C655,287.8,643.4,289.5,643.3,293.2z"/>
		</g>
	</g>
</g>
</svg>
